<?xml version="1.0" encoding="UTF-8"?>
<svg version="1.1" xmlns="http://www.w3.org/2000/svg" width="1024" height="1024">
<path d="M0 0 C337.92 0 675.84 0 1024 0 C1024 337.92 1024 675.84 1024 1024 C686.08 1024 348.16 1024 0 1024 C0 686.08 0 348.16 0 0 Z " fill="#F6F2EF" transform="translate(0,0)"/>
<path d="M0 0 C3.4760074 0.00335388 6.95201442 0.00459191 10.4280231 0.00590408 C60.8148139 0.02688081 111.15596082 0.24639163 161.47254848 3.19569206 C163.55752534 3.31757203 165.64262104 3.43722312 167.72775173 3.55644035 C195.72683999 5.16326669 223.63076096 7.26147204 251.51327419 10.31498528 C252.35102383 10.40604546 253.18877346 10.49710564 254.05190945 10.59092522 C292.98072148 14.85613905 328.21979559 24.09515215 353.82577419 55.50248528 C383.6300115 96.36553276 384.97595339 153.60794696 388.51327419 202.31498528 C388.60214397 203.53858253 388.69101376 204.76217979 388.78257656 206.02285576 C389.72046436 220.16783622 389.67725432 234.31259389 389.68124294 248.48295403 C389.68267224 249.83239892 389.68426945 251.18184364 389.68602848 252.53128815 C389.69523766 259.61780147 389.69937024 266.70429625 389.69857693 273.79081535 C389.69804737 279.5610262 389.70503578 285.33116876 389.71908474 291.10136223 C389.81533168 331.60463566 389.35970635 371.85730478 385.20077419 412.18998528 C385.09311733 413.25554649 384.98546047 414.32110771 384.87454128 415.41895866 C375.2105595 510.67329413 375.2105595 510.67329413 336.93514919 543.45170403 C314.78687094 560.49158907 288.61987714 566.54701867 261.51327419 570.31498528 C260.59771755 570.44469719 259.68216091 570.5744091 258.73886013 570.70805168 C215.46096804 576.66861881 171.11200002 579.00895673 127.47030544 580.42826653 C125.56161143 580.49125655 125.56161143 580.49125655 123.61435795 580.5555191 C85.2257164 581.79354042 46.81216699 581.58113865 8.40854752 581.5155822 C0.16696104 581.50217495 -8.07459891 581.49988421 -16.31619483 581.50053138 C-26.39009038 581.50121439 -36.46397073 581.49425248 -46.53786159 581.48508477 C-49.35918378 581.48299355 -52.18050339 581.48224935 -55.00182629 581.48184586 C-77.84961664 581.4755422 -100.65400554 581.16955882 -123.48672581 580.31498528 C-124.50199659 580.27768083 -125.51726738 580.24037638 -126.56330395 580.20194149 C-132.10178416 579.99694224 -137.63827259 579.7673299 -143.17422581 579.50248528 C-144.4336298 579.4423777 -144.4336298 579.4423777 -145.7184763 579.38105583 C-251.35731484 574.24093136 -251.35731484 574.24093136 -286.48672581 564.31498528 C-287.26435276 564.09761711 -288.04197971 563.88024895 -288.84317112 563.65629387 C-318.69486205 555.06224757 -345.21904599 539.04211734 -360.67422581 511.49857903 C-378.90169281 477.52669627 -381.29548157 436.39445117 -384.67422581 398.68998528 C-384.75294926 397.83685753 -384.83167271 396.98372978 -384.91278172 396.10474968 C-388.13715203 360.67339923 -388.8714451 325.09227379 -388.80458164 289.53485298 C-388.79911941 286.5059859 -388.79676743 283.47712668 -388.79470921 280.44825554 C-388.76074863 248.32195697 -388.14943013 216.34732545 -385.48672581 184.31498528 C-385.41411533 183.42464592 -385.34150486 182.53430656 -385.26669407 181.61698723 C-382.82367666 151.93955934 -380.2048364 120.44403831 -370.1717844 92.24320793 C-369.53076159 90.43893205 -368.93849489 88.61754178 -368.35000706 86.79545403 C-363.15178954 71.71150355 -353.7472089 59.38631387 -342.48672581 48.31498528 C-341.67590549 47.50545403 -340.86508518 46.69592278 -340.02969456 45.86186028 C-295.86784122 3.97035098 -220.10161567 8.23439551 -163.64297581 4.14701653 C-162.69637089 4.07739708 -161.74976597 4.00777763 -160.77447605 3.93604851 C-107.26591581 0.11739809 -53.61377817 -0.06017611 0 0 Z " fill="#DD2818" transform="translate(487.48672580718994,216.68501472473145)"/>
<path d="M0 0 C0.639375 0.21140625 1.27875 0.4228125 1.9375 0.640625 C28.17802316 9.45580075 50.43293125 25.84780072 63.1875 50.8125 C71.02386098 66.8088093 75 85.17364479 75 103 C52.89 103 30.78 103 8 103 C7.01 97.72 6.02 92.44 5 87 C0.65667515 74.90912271 -5.00016311 63.62883834 -16.86328125 57.52734375 C-32.18835234 50.84818316 -46.89494977 50.04336209 -62.7265625 56.03125 C-77.31581485 62.71610866 -85.19704918 75.27476977 -90.91381836 89.85205078 C-92.90041351 95.2817575 -94.37892194 100.82440966 -95.75 106.4375 C-95.94875732 107.24638672 -96.14751465 108.05527344 -96.35229492 108.88867188 C-99.95923607 124.6089366 -100.3454577 140.11845837 -100.31567383 156.1796875 C-100.31251824 159.72948072 -100.33603633 163.27843437 -100.36132812 166.828125 C-100.4359197 193.50100425 -98.08400244 224.6349049 -78.3671875 244.8828125 C-68.45469052 253.74844512 -55.66085447 257.81644213 -42.41796875 257.31640625 C-29.87151809 256.15496339 -18.03479662 253.96428409 -8.125 245.5625 C-7.42375 244.716875 -6.7225 243.87125 -6 243 C-5.53464844 242.52304687 -5.06929687 242.04609375 -4.58984375 241.5546875 C5.1161797 231.2777215 7.42559397 218.58274292 11 205 C32.12 205 53.24 205 75 205 C73.82774697 222.58379543 73.82774697 222.58379543 71.8125 231 C71.48258057 232.40245972 71.48258057 232.40245972 71.14599609 233.83325195 C63.8181899 263.72731204 44.88047544 284.6251472 19.25732422 300.64160156 C-11.8843594 319.38184899 -50.3523442 319.51482054 -84.875 311.3125 C-113.42666688 302.9504862 -135.5826989 282.63746011 -150 257 C-150.89332031 255.41832031 -150.89332031 255.41832031 -151.8046875 253.8046875 C-167.62408252 224.06422486 -170.42153616 191.43506103 -170.3125 158.375 C-170.31067719 157.22736176 -170.30885437 156.07972351 -170.30697632 154.89730835 C-170.26285342 138.40439925 -169.89430233 122.2758621 -167 106 C-166.82839355 104.96037109 -166.65678711 103.92074219 -166.47998047 102.84960938 C-161.10046841 70.639841 -148.51902855 38.48834696 -121.49609375 18.3046875 C-87.04432385 -6.16909595 -40.1171586 -13.3723862 0 0 Z " fill="#F6F3F0" transform="translate(674,352)"/>
<path d="M0 0 C1.36125 1.23556641 1.36125 1.23556641 2.75 2.49609375 C3.23855469 2.93550293 3.72710937 3.37491211 4.23046875 3.82763672 C24.16150125 21.97179324 32.00649647 44.14193664 36.5 70.12109375 C36.62785889 70.85489258 36.75571777 71.58869141 36.88745117 72.34472656 C37.00193604 73.04694336 37.1164209 73.74916016 37.234375 74.47265625 C37.38471191 75.386521 37.38471191 75.386521 37.53808594 76.31884766 C37.8345088 79.36435354 37.75 82.43619627 37.75 85.49609375 C16.3 85.49609375 -5.15 85.49609375 -27.25 85.49609375 C-29.23 76.58609375 -29.23 76.58609375 -31.25 67.49609375 C-35.22602726 55.68161275 -41.37639583 46.75545813 -52.55859375 40.74609375 C-66.18944419 34.41536495 -81.85853917 33.01483023 -96.4375 37.12109375 C-111.58159235 42.70462068 -120.47317747 52.03045394 -127.25 66.49609375 C-129.59143525 72.04864021 -131.47585328 77.74115017 -133.25 83.49609375 C-133.71019531 84.95015625 -133.71019531 84.95015625 -134.1796875 86.43359375 C-139.21155471 104.27856613 -139.72439938 123.16466202 -139.58618164 141.5690918 C-139.56234366 144.9558053 -139.56568557 148.34173785 -139.57226562 151.72851562 C-139.55394745 166.95098603 -139.22128033 181.90727153 -134.625 196.55859375 C-134.36630127 197.39366455 -134.10760254 198.22873535 -133.84106445 199.08911133 C-129.12520823 213.61983464 -122.3323153 226.45965113 -108.375 233.87109375 C-106.35023416 234.78452195 -104.30868642 235.66192471 -102.25 236.49609375 C-101.42242187 236.83640625 -100.59484375 237.17671875 -99.7421875 237.52734375 C-85.35520534 242.39817157 -68.95143164 240.42609833 -55.25 234.49609375 C-51.94432692 232.78204104 -49.09531718 230.89277171 -46.25 228.49609375 C-45.62867188 227.97273437 -45.00734375 227.449375 -44.3671875 226.91015625 C-32.96341518 216.39498957 -29.87227648 201.98519966 -26.25 187.49609375 C-5.13 187.49609375 15.99 187.49609375 37.75 187.49609375 C37.10503052 196.52566645 36.39435768 204.76192495 34.5 213.49609375 C34.27820068 214.53137207 34.05640137 215.56665039 33.82788086 216.63330078 C29.97122779 234.04613707 23.37907219 246.96443546 11.75 260.49609375 C11.05003906 261.34300781 10.35007812 262.18992187 9.62890625 263.0625 C-8.94154823 284.83593195 -35.46477991 295.01398804 -63.25 298.49609375 C-67.70806503 298.68143114 -72.16465915 298.6819107 -76.62597656 298.68139648 C-78.7170115 298.68355962 -80.80749719 298.70169009 -82.8984375 298.72070312 C-115.23579377 298.85718089 -145.76564907 288.09641838 -169.25 265.49609375 C-187.52941422 246.86670547 -197.17505261 221.42494589 -203.25 196.49609375 C-203.54648438 195.35011719 -203.84296875 194.20414063 -204.1484375 193.0234375 C-211.10964981 163.00751709 -210.58012739 127.39760862 -205.66015625 97.05224609 C-205.26932364 94.61652143 -204.92506006 92.17880927 -204.59375 89.734375 C-199.86566046 56.3832415 -185.17985878 20.46959613 -157.58984375 -0.3203125 C-143.95177062 -10.21997086 -129.61975719 -16.60198337 -113.25 -20.50390625 C-112.56615234 -20.66906738 -111.88230469 -20.83422852 -111.17773438 -21.00439453 C-75.11584098 -29.23665395 -28.75882688 -24.78776794 0 0 Z " fill="#F6F3F0" transform="translate(435.25,369.50390625)"/>
<path d="M0 0 C6.13842918 5.18356242 12.07341663 10.57712263 18 16 C14.03869629 16 13.17085599 14.65122875 10.3125 12 C9.10013672 10.88625 9.10013672 10.88625 7.86328125 9.75 C7.24839844 9.1725 6.63351562 8.595 6 8 C6 8.66 6 9.32 6 10 C5.01 10.33 4.02 10.66 3 11 C1.35 9.35 -0.3 7.7 -2 6 C-1.34 4.02 -0.68 2.04 0 0 Z " fill="#DB1E11" transform="translate(538,630)"/>
<path d="M0 0 C0.495 1.485 0.495 1.485 1 3 C-12.68290082 3.2032114 -26.33203763 2.5839284 -40 2 C-40 1.67 -40 1.34 -40 1 C-26.69186686 -0.35500992 -13.35937626 -0.09794264 0 0 Z " fill="#F5E0DC" transform="translate(640,217)"/>
<path d="M0 0 C0.33 0.99 0.66 1.98 1 3 C-2.72915017 3.02912348 -6.4582709 3.04684037 -10.1875 3.0625 C-11.77014648 3.07506836 -11.77014648 3.07506836 -13.38476562 3.08789062 C-14.91713867 3.09272461 -14.91713867 3.09272461 -16.48046875 3.09765625 C-17.41785889 3.10289307 -18.35524902 3.10812988 -19.32104492 3.11352539 C-21.98049477 3.00082657 -24.40920573 2.59376649 -27 2 C-27 1.67 -27 1.34 -27 1 C-17.97746114 0.16069406 -9.0598059 -0.12224626 0 0 Z " fill="#DE2E22" transform="translate(333,221)"/>
<path d="M0 0 C0.33 0 0.66 0 1 0 C1.33868777 2.20751848 1.67071689 4.41605911 2 6.625 C2.185625 7.85476563 2.37125 9.08453125 2.5625 10.3515625 C2.95402516 13.6166027 3.08080924 16.71712451 3 20 C2.34 19.67 1.68 19.34 1 19 C1 17.02 1 15.04 1 13 C0.34 13 -0.32 13 -1 13 C-1.07654536 8.48382401 -1.10228696 4.40914783 0 0 Z " fill="#F4E0DD" transform="translate(107,653)"/>
<path d="M0 0 C3.50297874 4.02193856 9 10.39433144 9 16 C9.66 16 10.32 16 11 16 C10.67 16.66 10.34 17.32 10 18 C9.34 18 8.68 18 8 18 C6.6589995 15.5664433 5.32705144 13.12864699 4 10.6875 C3.6184375 9.99720703 3.236875 9.30691406 2.84375 8.59570312 C0 3.33984375 0 3.33984375 0 0 Z " fill="#F6E8E4" transform="translate(846,278)"/>
<path d="M0 0 C0.66 0 1.32 0 2 0 C3.00496852 3.01490557 3.10335303 5.04181692 3.0625 8.1875 C3.05347656 9.08855469 3.04445313 9.98960937 3.03515625 10.91796875 C3.02355469 11.60503906 3.01195312 12.29210937 3 13 C2.01 13.33 1.02 13.66 0 14 C-1.33257403 4.58997722 -1.33257403 4.58997722 0 0 Z " fill="#DE3424" transform="translate(873,575)"/>
<path d="M0 0 C0.99 0.33 1.98 0.66 3 1 C2.67 4.63 2.34 8.26 2 12 C1.01 12.33 0.02 12.66 -1 13 C-1.04254356 11.00045254 -1.04080783 8.99958364 -1 7 C-0.67 6.67 -0.34 6.34 0 6 C0.04080783 4.00041636 0.04254356 1.99954746 0 0 Z " fill="#DE2F23" transform="translate(228,459)"/>
<path d="M0 0 C2.05279359 4.10558718 2.2216942 5.80206685 2.125 10.25 C2.10695313 11.32765625 2.08890625 12.4053125 2.0703125 13.515625 C2.03550781 14.74539063 2.03550781 14.74539063 2 16 C1.01 15.67 0.02 15.34 -1 15 C-0.67 10.05 -0.34 5.1 0 0 Z " fill="#F7E8E5" transform="translate(872,625)"/>
<path d="M0 0 C0.66 0.99 1.32 1.98 2 3 C0.68 4.32 -0.64 5.64 -2 7 C-1.34 7.33 -0.68 7.66 0 8 C-0.99 9.485 -0.99 9.485 -2 11 C-4.09230769 6.56923077 -4.09230769 6.56923077 -3.625 3.6875 C-3.41875 3.130625 -3.2125 2.57375 -3 2 C-2.01 2 -1.02 2 0 2 C0 1.34 0 0.68 0 0 Z " fill="#DB1D10" transform="translate(121,699)"/>
<path d="M0 0 C0.33 0.66 0.66 1.32 1 2 C1.66 2 2.32 2 3 2 C2.67 4.97 2.34 7.94 2 11 C0.68 10.67 -0.64 10.34 -2 10 C-1.67 9.278125 -1.34 8.55625 -1 7.8125 C0.00603529 4.98302573 0.16977402 2.97104534 0 0 Z " fill="#DF3123" transform="translate(864,670)"/>
<path d="M0 0 C0.66 0.33 1.32 0.66 2 1 C1.67 5.29 1.34 9.58 1 14 C0.67 14 0.34 14 0 14 C-0.19456705 12.04235617 -0.38044247 10.08384679 -0.5625 8.125 C-0.66691406 7.03445313 -0.77132812 5.94390625 -0.87890625 4.8203125 C-1 2 -1 2 0 0 Z " fill="#F5E9E5" transform="translate(232,454)"/>
<path d="M0 0 C0.99 0.33 1.98 0.66 3 1 C3.08333357 5.8333472 2.95261487 10.23692563 2 15 C1.67 15 1.34 15 1 15 C0.67 10.05 0.34 5.1 0 0 Z " fill="#E03424" transform="translate(103,390)"/>
<path d="M0 0 C3.45281166 1.15093722 4.38082163 2.3205993 6.6875 5.0625 C7.31011719 5.79597656 7.93273437 6.52945313 8.57421875 7.28515625 C9.04472656 7.85105469 9.51523437 8.41695312 10 9 C9.34 9.66 8.68 10.32 8 11 C7.34 9.68 6.68 8.36 6 7 C5.34 7 4.68 7 4 7 C2.02 3.535 2.02 3.535 0 0 Z " fill="#F7E8E5" transform="translate(308,588)"/>
<path d="M0 0 C0.99 0 1.98 0 3 0 C3 3.3 3 6.6 3 10 C2.01 9.67 1.02 9.34 0 9 C0 6.03 0 3.06 0 0 Z " fill="#E03829" transform="translate(502,536)"/>
<path d="M0 0 C6.0546875 -0.1953125 6.0546875 -0.1953125 8 0 C8.66 0.66 9.32 1.32 10 2 C6.7 2.33 3.4 2.66 0 3 C0 2.01 0 1.02 0 0 Z " fill="#F6E5E0" transform="translate(649,664)"/>
<path d="M0 0 C0.99 0.33 1.98 0.66 3 1 C2.67 2.32 2.34 3.64 2 5 C-0.97 4.505 -0.97 4.505 -4 4 C-3.34 3.67 -2.68 3.34 -2 3 C-2 2.34 -2 1.68 -2 1 C-1.34 0.67 -0.68 0.34 0 0 Z " fill="#DE3021" transform="translate(205,777)"/>
<path d="M0 0 C-1.49097658 3.7952131 -3.75700849 5.61042731 -7 8 C-6.44414399 4.1090079 -4.34122117 0 0 0 Z " fill="#F3D5D1" transform="translate(444,632)"/>
<path d="M0 0 C2.97 0.33 5.94 0.66 9 1 C7 3 7 3 3.375 3.125 C2.26125 3.08375 1.1475 3.0425 0 3 C0 2.01 0 1.02 0 0 Z " fill="#DE2F24" transform="translate(765,231)"/>
<path d="M0 0 C1.485 0.99 1.485 0.99 3 2 C3.375 4.4375 3.375 4.4375 3 7 C2.01 7.99 1.02 8.98 0 10 C0 6.7 0 3.4 0 0 Z " fill="#F7EAE6" transform="translate(875,588)"/>
<path d="M0 0 C2 4 2 4 1.8125 6.125 C1 8 1 8 -2 10 C-1.34 6.7 -0.68 3.4 0 0 Z " fill="#F5DFDA" transform="translate(235,438)"/>
<path d="M0 0 C1.32 0 2.64 0 4 0 C4 0.66 4 1.32 4 2 C5.32 2.66 6.64 3.32 8 4 C7.67 4.99 7.34 5.98 7 7 C5.83040013 6.02433888 4.66438823 5.044375 3.5 4.0625 C2.8503125 3.51722656 2.200625 2.97195313 1.53125 2.41015625 C1.0259375 1.94480469 0.520625 1.47945313 0 1 C0 0.67 0 0.34 0 0 Z " fill="#F4DBD8" transform="translate(387,412)"/>
<path d="M0 0 C1.61949011 2.57213134 2.04408751 3.67669159 1.625 6.75 C1.41875 7.4925 1.2125 8.235 1 9 C0.34 8.67 -0.32 8.34 -1 8 C-0.67 5.36 -0.34 2.72 0 0 Z M2 0 C3 4 3 4 3 4 Z " fill="#DD3328" transform="translate(112,327)"/>
<path d="M0 0 C0.33 0.66 0.66 1.32 1 2 C1.66 2 2.32 2 3 2 C3.33 3.65 3.66 5.3 4 7 C3.01 7.495 3.01 7.495 2 8 C1.01 5.69 0.02 3.38 -1 1 C-0.67 0.67 -0.34 0.34 0 0 Z " fill="#F5EAE6" transform="translate(246,602)"/>
<path d="M0 0 C0.99 0.33 1.98 0.66 3 1 C1.515 3.475 1.515 3.475 0 6 C-0.66 5.34 -1.32 4.68 -2 4 C-1 1 -1 1 0 0 Z " fill="#DB1F11" transform="translate(303,566)"/>
<path d="M0 0 C0.66 0.99 1.32 1.98 2 3 C1.125 6.1875 1.125 6.1875 0 9 C-0.66 8.67 -1.32 8.34 -2 8 C-1.34 5.36 -0.68 2.72 0 0 Z " fill="#F5EAE7" transform="translate(515,424)"/>
</svg>
